<?xml version="1.0" encoding="UTF-8"?>
<svg xmlns="http://www.w3.org/2000/svg" width="595" height="842" viewBox="0 0 595 842">
<rect width="595" height="842" fill="#F7F4ED"/>
<rect width="595" height="90" fill="#F7F4ED"/>
<rect y="90" width="595" height="4" fill="#4A5A3A"/>
<text x="40" y="52" font-family="Georgia, serif" font-size="28" font-weight="bold" fill="#2F3B27">WARKA</text>
<text x="40" y="72" font-family="Arial, sans-serif" font-size="11" fill="#5C6247">Graduation Printing Store - Iraq</text>
<text x="400" y="48" font-family="Arial, sans-serif" font-size="18" font-weight="bold" fill="#2A2A2A">INVOICE</text>
<text x="400" y="68" font-family="Arial, sans-serif" font-size="10" fill="#4A5A3A">#WRK-2026-00482</text>
<rect x="40" y="110" width="515" height="72" rx="8" fill="#EFEAE0" stroke="#E3DDD0"/>
<text x="56" y="132" font-family="Arial, sans-serif" font-size="11" fill="#454545">Student: Ahmad Mohammed Ali</text>
<text x="56" y="152" font-family="Arial, sans-serif" font-size="11" fill="#454545">Phone: 0770 123 4567</text>
<text x="56" y="172" font-family="Arial, sans-serif" font-size="11" fill="#454545">Baghdad - Karrada</text>
<text x="360" y="132" font-family="Arial, sans-serif" font-size="11" fill="#454545">Date: 29 June 2026</text>
<text x="360" y="152" font-family="Arial, sans-serif" font-size="11" fill="#454545">Status: Printing</text>
<text x="360" y="172" font-family="Arial, sans-serif" font-size="11" fill="#454545">Payment: COD</text>
<rect x="40" y="200" width="515" height="28" rx="4" fill="#2F3B27"/>
<text x="56" y="218" font-family="Arial, sans-serif" font-size="11" font-weight="bold" fill="#F7F4ED">Product</text>
<text x="240" y="218" font-family="Arial, sans-serif" font-size="11" font-weight="bold" fill="#F7F4ED">Size</text>
<text x="320" y="218" font-family="Arial, sans-serif" font-size="11" font-weight="bold" fill="#F7F4ED">Color</text>
<text x="400" y="218" font-family="Arial, sans-serif" font-size="11" font-weight="bold" fill="#F7F4ED">Fabric</text>
<text x="480" y="218" font-family="Arial, sans-serif" font-size="11" font-weight="bold" fill="#F7F4ED">IQD</text>
<rect x="40" y="228" width="515" height="36" fill="#FFFFFF" stroke="#E3DDD0"/>
<text x="56" y="250" font-family="Arial, sans-serif" font-size="12" fill="#2A2A2A">Graduation Gown</text>
<text x="240" y="250" font-family="Arial, sans-serif" font-size="12" fill="#2A2A2A">L</text>
<text x="320" y="250" font-family="Arial, sans-serif" font-size="12" fill="#2A2A2A">Black</text>
<text x="400" y="250" font-family="Arial, sans-serif" font-size="12" fill="#2A2A2A">Premium</text>
<text x="480" y="250" font-family="Arial, sans-serif" font-size="12" font-weight="bold" fill="#2A2A2A">45,000</text>
<rect x="40" y="264" width="515" height="36" fill="#EFEAE0" stroke="#E3DDD0"/>
<text x="56" y="286" font-family="Arial, sans-serif" font-size="12" fill="#2A2A2A">Graduation Cap</text>
<text x="240" y="286" font-family="Arial, sans-serif" font-size="12" fill="#2A2A2A">M</text>
<text x="320" y="286" font-family="Arial, sans-serif" font-size="12" fill="#2A2A2A">Black</text>
<text x="400" y="286" font-family="Arial, sans-serif" font-size="12" fill="#2A2A2A">Standard</text>
<text x="480" y="286" font-family="Arial, sans-serif" font-size="12" font-weight="bold" fill="#2A2A2A">12,000</text>
<rect x="40" y="300" width="515" height="36" fill="#FFFFFF" stroke="#E3DDD0"/>
<text x="56" y="322" font-family="Arial, sans-serif" font-size="12" fill="#2A2A2A">Graduation Sash</text>
<text x="240" y="322" font-family="Arial, sans-serif" font-size="12" fill="#2A2A2A">Std</text>
<text x="320" y="322" font-family="Arial, sans-serif" font-size="12" fill="#2A2A2A">Gold</text>
<text x="400" y="322" font-family="Arial, sans-serif" font-size="12" fill="#2A2A2A">Standard</text>
<text x="480" y="322" font-family="Arial, sans-serif" font-size="12" font-weight="bold" fill="#2A2A2A">8,000</text>
<line x1="40" y1="360" x2="555" y2="360" stroke="#E3DDD0" stroke-width="1"/>
<text x="360" y="388" font-family="Arial, sans-serif" font-size="12" fill="#454545">Subtotal:</text>
<text x="480" y="388" font-family="Arial, sans-serif" font-size="12" fill="#2A2A2A">65,000</text>
<text x="360" y="408" font-family="Arial, sans-serif" font-size="12" fill="#454545">COD fee:</text>
<text x="480" y="408" font-family="Arial, sans-serif" font-size="12" fill="#2A2A2A">5,000</text>
<text x="360" y="436" font-family="Arial, sans-serif" font-size="16" font-weight="bold" fill="#4A5A3A">TOTAL:</text>
<text x="460" y="436" font-family="Arial, sans-serif" font-size="18" font-weight="bold" fill="#2F3B27">70,000 IQD</text>
<rect x="40" y="470" width="180" height="180" rx="6" fill="#FFFFFF" stroke="#E3DDD0"/>
<text x="52" y="492" font-family="Arial, sans-serif" font-size="10" fill="#5C6247">Scan to track order</text>
<rect x="65" y="520" width="130" height="130" fill="#F7F4ED" stroke="#C7BCAF"/>
<rect x="80" y="535" width="18" height="18" fill="#2F3B27"/>
<rect x="108" y="535" width="18" height="18" fill="#2F3B27"/>
<rect x="136" y="535" width="18" height="18" fill="#2F3B27"/>
<rect x="164" y="535" width="18" height="18" fill="#2F3B27"/>
<text x="250" y="510" font-family="Arial, sans-serif" font-size="11" fill="#454545">Thank you for choosing WARKA</text>
<text x="250" y="536" font-family="Arial, sans-serif" font-size="10" fill="#6B6B6B">Delivery: 3-5 business days</text>
<text x="250" y="554" font-family="Arial, sans-serif" font-size="10" fill="#6B6B6B">WhatsApp: +964 770 000 0000</text>
<rect y="800" width="595" height="42" fill="#2F3B27"/>
<text x="297" y="826" text-anchor="middle" font-family="Arial, sans-serif" font-size="10" fill="#F7F4ED">WARKA Receipt Preview - Sample only</text>
</svg>
